# xmcd
#
# Track frame offsets:
#  150
#  11680
#  23363
#  37510
#  53818
#  86825
#  101428
#  113015
#  127500
#  142878
#
# Disc length: 2353 seconds
#
# Revision: 6
# Processed by: cddbd v1.5.2PL0 Copyright (c) Steve Scherf et al.
# Submitted via: AltoMP3_Maker 3.0
#
DISCID=62092f0a
DTITLE=The Universal-International Orchestra - The Glenn Miller Story
DYEAR=1900
DGENRE=
TTITLE0=The Universal-International Orchestra - Moonlight Serenade
TTITLE1=The Universal-International Orchestra - Tuxedo Junction
TTITLE2=The Universal-International Orchestra - Little Brown Jug
TTITLE3=The Universal-International Orchestra - St. Louis Blues - March
TTITLE4=Louis Armstrong and the All Stars - Basin Street Blues
TTITLE5=The Universal-International Orchestra - In The Mood
TTITLE6=The Universal-International Orchestra - A String of Pearls
TTITLE7=The Universal-International Orchestra - Pennsylvania 6-5000
TTITLE8=The Universal-International Orchestra - American Patrol
TTITLE9=Louis Armstrong and the All Stars - Otchi-Tchorn-Ni-Ya
EXTD=
EXTT0=
EXTT1=
EXTT2=
EXTT3=
EXTT4=
EXTT5=
EXTT6=
EXTT7=
EXTT8=
EXTT9=
PLAYORDER=
